<?xml version="1.0" encoding="UTF-8"?>
<svg version="1.1" xmlns="http://www.w3.org/2000/svg" width="1024" height="1024">
<path d="M0 0 C337.92 0 675.84 0 1024 0 C1024 337.92 1024 675.84 1024 1024 C686.08 1024 348.16 1024 0 1024 C0 686.08 0 348.16 0 0 Z " fill="#498DFF" transform="translate(0,0)"/>
<path d="M0 0 C3.46325144 2.87429734 6.74975595 5.88841824 10 9 C10.65226562 9.58910156 11.30453125 10.17820313 11.9765625 10.78515625 C18.97922562 17.34114745 24.36958183 25.28203643 30 33 C31.07098867 34.45749139 32.14259851 35.91452654 33.21484375 37.37109375 C35.8170859 40.90884422 38.41084883 44.45265902 41 48 C44.50700731 43.65677197 47.91701454 39.24296777 51.3125 34.8125 C51.89499512 34.05437012 52.47749023 33.29624023 53.07763672 32.51513672 C56.05230699 28.62403183 58.92066761 24.71110806 61.625 20.625 C75.57547015 0.53495863 99.7000281 -11.46876436 123 -17 C124.22332031 -17.35578125 125.44664062 -17.7115625 126.70703125 -18.078125 C131.78017102 -19.33900897 136.79580047 -19.34283508 142 -19.3125 C143.52185913 -19.30404053 143.52185913 -19.30404053 145.07446289 -19.29541016 C171.50251421 -18.87302972 193.72162033 -8.60315496 213 9 C213.67675781 9.60585937 214.35351562 10.21171875 215.05078125 10.8359375 C233.25679387 27.99562755 243.66256153 52.21805193 245 77 C245.06445312 77.87398438 245.12890625 78.74796875 245.1953125 79.6484375 C245.58351372 89.09466726 243.27930121 97.90901556 241 107 C240.6542106 108.38269175 240.30850381 109.76540415 239.96286011 111.14813232 C239.64511627 112.41924866 239.32737244 113.69036499 239 115 C239.98955185 115.00364563 240.9791037 115.00729126 241.99864197 115.01104736 C251.39715296 115.04824511 260.79534377 115.10628313 270.19361019 115.18390274 C275.02353566 115.22314521 279.85328514 115.25544613 284.68334961 115.27099609 C289.35852136 115.28631761 294.03320848 115.3210308 298.70816231 115.36830902 C300.47757274 115.3829651 302.24705243 115.39103177 304.01652336 115.39188385 C326.85178424 115.41390637 344.72422219 120.23572661 361.625 136.25 C377.11761934 152.22845061 380.31546877 171.62051176 380.26742554 193.02067566 C380.27116881 194.61521646 380.27577301 196.20975544 380.28115618 197.80429155 C380.29331785 202.15678931 380.29313384 206.50920983 380.29076743 210.86172068 C380.29035753 215.56741225 380.30141487 220.27307962 380.31088257 224.97875977 C380.32745579 234.18710011 380.33299044 243.39541483 380.33410732 252.60376885 C380.33505951 260.09285248 380.33917829 267.58192771 380.34550858 275.07100868 C380.36311064 296.32962239 380.37234902 317.58821596 380.37084763 338.84683701 C380.37072776 340.56391123 380.37072776 340.56391123 380.37060547 342.31567383 C380.37052371 343.46179645 380.37044195 344.60791907 380.37035771 345.78877268 C380.36954501 364.35812382 380.38868123 382.9273938 380.4168822 401.49672147 C380.44564696 420.58874874 380.45942053 439.68073648 380.45769465 458.77278596 C380.45703201 469.48140888 380.46246907 480.1899467 380.48405075 490.89855003 C380.50230981 500.01651916 380.50657115 509.13436461 380.4930319 518.25234415 C380.48652618 522.89855656 380.48629789 527.54453202 380.5037384 532.19072151 C380.5195808 536.45526759 380.51649305 540.71939106 380.49917014 544.98392753 C380.49612462 546.51549164 380.49963869 548.0470882 380.51089029 549.57861402 C380.6584358 571.11145338 375.05612147 589.98007836 360 606 C344.55651784 621.35606622 325.83012166 625.37164559 304.72094387 625.40123022 C302.56652012 625.39474562 300.41209722 625.38797572 298.25767517 625.38095093 C295.94511732 625.38441081 293.63256111 625.38917758 291.32000834 625.39513266 C284.98762075 625.40762674 278.65536924 625.40147943 272.32298124 625.39217401 C266.18812802 625.38460437 260.0532881 625.39408436 253.91843869 625.4016161 C240.6023077 625.41738668 227.28621998 625.41605485 213.9700849 625.40737936 C202.3173634 625.39982509 190.66465773 625.39786614 179.01193428 625.4014473 C177.85135565 625.40179103 177.85135565 625.40179103 176.66733099 625.40214171 C173.52636247 625.40307576 170.38539396 625.40403096 167.24442546 625.405021 C137.79622319 625.41419241 108.34804844 625.40588631 78.89985043 625.38973031 C52.74954375 625.3754927 26.5992809 625.3767692 0.44897461 625.39111328 C-28.94775627 625.4071843 -58.34446286 625.41354332 -87.74119753 625.40427649 C-90.87604836 625.40331437 -94.0108992 625.40237585 -97.14575005 625.4014473 C-97.91760073 625.40121006 -98.68945142 625.40097283 -99.48469153 625.40072841 C-111.12942467 625.39731908 -122.77414022 625.40130104 -134.41887093 625.40888596 C-147.66151204 625.4174688 -160.90410322 625.41530834 -174.14673812 625.39904372 C-180.90261032 625.39101939 -187.65838821 625.38806831 -194.41426086 625.39799118 C-200.60039612 625.40693981 -206.78636012 625.40200215 -212.97247987 625.38605852 C-215.20849286 625.3827115 -217.44452036 625.384403 -219.680524 625.39168589 C-241.0441289 625.45592368 -241.0441289 625.45592368 -251 622 C-252.12535156 621.63519531 -253.25070313 621.27039063 -254.41015625 620.89453125 C-273.40412079 613.14588887 -286.02704574 598.93308032 -293.95703125 580.3125 C-297.11316025 570.28853972 -297.28846608 560.30348913 -297.26069641 549.88957214 C-297.26372135 548.2731327 -297.26761254 546.65669469 -297.27228898 545.04025918 C-297.28253364 540.62269877 -297.2803962 536.20521984 -297.27610838 531.78765285 C-297.27363472 527.01383719 -297.28266328 522.24004083 -297.29014587 517.4662323 C-297.30287721 508.12306718 -297.30468851 498.77993082 -297.30234561 489.43675848 C-297.30056051 481.83988339 -297.30231622 474.24301701 -297.30657005 466.64614296 C-297.30716524 465.56373386 -297.30776043 464.48132477 -297.30837366 463.36611539 C-297.30958544 461.16698851 -297.31079958 458.96786162 -297.31201603 456.76873473 C-297.32288559 436.15789492 -297.32073187 415.54707148 -297.31463119 394.93623076 C-297.30946282 376.09644273 -297.32071642 357.25670641 -297.33972941 338.41692861 C-297.35911911 319.0548754 -297.3673618 299.69284664 -297.36360615 280.33078367 C-297.3616958 269.46744002 -297.36416553 258.60414038 -297.37832069 247.74080467 C-297.3902499 238.49245173 -297.39162211 229.2441699 -297.37953053 219.99581596 C-297.37365262 215.28116353 -297.37251224 210.56664106 -297.38453293 205.85199738 C-297.39542805 201.52841599 -297.39224551 197.2050725 -297.37827124 192.88150207 C-297.37563427 191.32506459 -297.37795913 189.76860824 -297.38600711 188.21218934 C-297.48746317 167.11141623 -292.27607029 149.80269018 -277.47363281 134.45019531 C-266.02761703 123.18622352 -250.67818952 115.81234597 -234.48600769 115.75115967 C-233.7235524 115.75835022 -232.96109711 115.76554077 -232.17553711 115.77294922 C-231.34516937 115.77265717 -230.51480164 115.77236511 -229.65927124 115.77206421 C-226.94851777 115.77344374 -224.23804846 115.78893917 -221.52734375 115.8046875 C-219.63448741 115.80842254 -217.74162912 115.81126719 -215.84877014 115.81326294 C-210.89220747 115.82086074 -205.93576397 115.84047575 -200.97924805 115.8626709 C-195.91131197 115.88321274 -190.84335643 115.89228242 -185.77539062 115.90234375 C-175.85020836 115.9237256 -165.92511413 115.95781452 -156 116 C-156.14622803 115.45061768 -156.29245605 114.90123535 -156.44311523 114.33520508 C-157.10948648 111.82805264 -157.77351318 109.32028493 -158.4375 106.8125 C-158.78264648 105.51602539 -158.78264648 105.51602539 -159.13476562 104.19335938 C-161.20718434 96.35421031 -162.18206699 89.42398573 -162.1875 81.3125 C-162.19974609 80.36955078 -162.21199219 79.42660156 -162.22460938 78.45507812 C-162.27732886 52.88612711 -150.22661119 30.18525903 -133 12 C-132.26652344 11.21367187 -131.53304687 10.42734375 -130.77734375 9.6171875 C-125.64177456 4.27329716 -120.24781341 -0.02495524 -114 -4 C-113.07316406 -4.598125 -112.14632812 -5.19625 -111.19140625 -5.8125 C-77.53183578 -26.5535899 -31.37329945 -23.83499278 0 0 Z " fill="#FEFEFF" transform="translate(471,209)"/>
<path d="M0 0 C3.6388891 3.46621774 6.55524085 6.97894265 9.4375 11.125 C10.31368967 12.3733898 11.19137866 13.62072822 12.0703125 14.8671875 C12.77462402 15.86637207 12.77462402 15.86637207 13.49316406 16.88574219 C16.21812342 20.70916215 19.01878243 24.47669216 21.8125 28.25 C26.45884745 34.53282068 31.06393814 40.84251041 35.625 47.1875 C40.16822799 53.50434616 44.79283905 59.75180708 49.48095703 65.96166992 C53.7855335 71.67826615 57.96938612 77.47757783 62.14453125 83.2890625 C65.70647458 88.23667829 69.32681197 93.13450943 73 98 C77.7500351 104.29406986 82.38980736 110.66061822 86.99291992 117.06274414 C91.6440792 123.52550254 96.35974602 129.93911418 101.08984375 136.34423828 C105.42092039 142.20964804 109.72572779 148.0930089 114 154 C119.08076891 152.37295613 122.95257641 149.32256806 127.1875 146.1875 C128.80068499 145.00768087 130.41396907 143.82799722 132.02734375 142.6484375 C132.85089355 142.04354492 133.67444336 141.43865234 134.52294922 140.81542969 C138.41752271 137.96109808 142.33377582 135.13701282 146.25 132.3125 C146.98871338 131.77882813 147.72742676 131.24515625 148.48852539 130.6953125 C155.30715264 125.7708741 162.14906784 120.87936165 169 116 C166.02435201 110.45513398 162.54629599 105.66060379 158.625 100.75 C153.67776872 94.47490955 148.83913201 88.13955463 144.125 81.6875 C139.1597054 74.89819106 134.11321145 68.17861812 129 61.5 C122.05692411 52.42569002 115.23874375 43.26629593 108.49511719 34.04296875 C107.11789984 32.16110155 105.73572644 30.28301034 104.3515625 28.40625 C103.61679687 27.4059375 102.88203125 26.405625 102.125 25.375 C101.50882813 24.53710938 100.89265625 23.69921875 100.2578125 22.8359375 C99 21 99 21 99 20 C156.09 20 213.18 20 272 20 C272 87.32 272 154.64 272 224 C92.81 224 -86.38 224 -271 224 C-271 156.68 -271 89.36 -271 20 C-213.91 20 -156.82 20 -98 20 C-102.01296824 26.01945235 -106.02350334 31.73553587 -110.5 37.375 C-115.4009923 43.61102729 -120.19375935 49.90990029 -124.875 56.3125 C-129.84053796 63.10162757 -134.88658002 69.82153568 -140 76.5 C-145.82718725 84.11149468 -151.56861817 91.77899344 -157.22070312 99.52148438 C-161.05091897 104.75814422 -164.99211507 109.8981012 -169 115 C-160.17099553 122.11401799 -151.01451746 128.74647905 -141.73291016 135.2512207 C-137.80288965 138.00890652 -133.89522057 140.79278719 -130.015625 143.62109375 C-129.19852051 144.21631836 -128.38141602 144.81154297 -127.53955078 145.42480469 C-125.95744433 146.57979038 -124.37760128 147.73788435 -122.80029297 148.89941406 C-122.08502441 149.42116211 -121.36975586 149.94291016 -120.6328125 150.48046875 C-119.68752686 151.17499146 -119.68752686 151.17499146 -118.72314453 151.88354492 C-116.88232301 153.17837213 -116.88232301 153.17837213 -114 154 C-107.10710532 145.24868292 -100.24069008 136.49785122 -93.82177734 127.39086914 C-90.36104497 122.48409977 -86.81700073 117.6424977 -83.25 112.8125 C-82.65775635 112.01021973 -82.0655127 111.20793945 -81.45532227 110.38134766 C-79.63763026 107.92034413 -77.8189378 105.46008286 -76 103 C-73.64456981 99.81343115 -71.29023986 96.62605578 -68.9375 93.4375 C-68.35919434 92.65375 -67.78088867 91.87 -67.18505859 91.0625 C-63.21346178 85.6706486 -59.28515325 80.24902351 -55.375 74.8125 C-50.83004123 68.49363171 -46.20318727 62.24459167 -41.51464844 56.03173828 C-37.82280502 51.12741322 -34.20935905 46.17081776 -30.625 41.1875 C-3.56216216 3.56216216 -3.56216216 3.56216216 0 0 Z " fill="#498DFF" transform="translate(512,373)"/>
<path d="M0 0 C179.52 0 359.04 0 544 0 C544 22.11 544 44.22 544 67 C364.48 67 184.96 67 0 67 C0 44.89 0 22.78 0 0 Z " fill="#478CFF" transform="translate(240,698)"/>
<path d="M0 0 C7.30421138 5.81860907 12.72100952 14.15006533 13.82421875 23.52734375 C14.67965184 34.96411226 12.37638723 43.38672065 5.36328125 52.40625 C-0.29680348 58.79800422 -7.51582579 61.9751245 -15.93359375 62.97265625 C-26.78476154 63.30147952 -34.1413343 61.33767467 -42.48828125 54.40234375 C-48.43753276 48.72436314 -52.65317757 41.88900256 -53.17578125 33.52734375 C-53.22605469 32.79 -53.27632813 32.05265625 -53.328125 31.29296875 C-53.72431564 21.08709789 -50.8345403 12.32967228 -44.17578125 4.52734375 C-31.84138468 -7.23601594 -14.57990583 -9.8682666 0 0 Z " fill="#4E90FF" transform="translate(430.17578125,262.47265625)"/>
<path d="M0 0 C9.42675514 5.48592012 16.21862477 13.7602478 19.12109375 24.234375 C20.16556756 35.73573195 19.38984935 46.10993314 12.12109375 55.546875 C6.22450243 61.76323808 -2.4966179 65.82550876 -11.015625 66.47265625 C-18.62134135 66.63163162 -24.35803416 66.28311763 -30.87890625 62.234375 C-31.57628906 61.81027344 -32.27367187 61.38617188 -32.9921875 60.94921875 C-40.55763069 55.83435226 -44.82506311 49.0845718 -46.87890625 40.234375 C-47.81431517 29.56418723 -47.5137395 20.285163 -40.8203125 11.546875 C-30.39938245 -0.54351265 -15.68682735 -6.28659243 0 0 Z " fill="#4B8EFF" transform="translate(627.87890625,258.765625)"/>
</svg>
